<svg xmlns="http://www.w3.org/2000/svg" width="1387" height="2277" viewBox="0 0 1387 2277">
    <g fill="none" fill-rule="evenodd" transform="translate(0 -1096.5)">
        <circle cx="4" cy="2997" r="4" fill="#E3017F" opacity=".405"/>
        <circle cx="706" cy="3374" r="6" fill="#00AB9F" fill-opacity=".6"/>
        <circle cx="1348" cy="3119" r="5" fill="#E3017F" fill-opacity=".3"/>
        <circle cx="461" cy="3050" r="5" fill="#E3017F" fill-opacity=".3"/>
        <circle cx="905" cy="3292" r="3" fill="#E7AA2B"/>
        <circle cx="267.5" cy="2741.5" r="6.5" fill="#E7AA2B"/>
        <circle cx="1017" cy="2140" r="5" fill="#E7AA2B" fill-opacity=".805"/>
        <circle cx="64" cy="2255" r="5" fill="#E7AA2B" fill-opacity=".805"/>
        <circle cx="733" cy="1853" r="5" fill="#E7AA2B" fill-opacity=".805"/>
        <circle cx="670" cy="2098" r="6" fill="#00AB9F"/>
        <circle cx="457" cy="1495" r="6" fill="#00AB9F" fill-opacity=".804"/>
        <circle cx="1381" cy="1333" r="6" fill="#00AB9F" fill-opacity=".804"/>
        <circle cx="559" cy="1303" r="3" fill="#00AB9F" fill-opacity=".804"/>
        <circle cx="199" cy="1327" r="4" fill="#8CC21F"/>
        <circle cx="10" cy="1302" r="4" fill="#E7AA2B"/>
        <circle cx="1234" cy="1193" r="5" fill="#EB7072"/>
        <circle cx="577.5" cy="2899.5" r="5.5" fill="#00AB9F" fill-opacity=".797"/>
        <circle cx="411.5" cy="2025.5" r="2.5" fill="#8CC21F"/>
        <circle cx="234.5" cy="3269.5" r="4.5" fill="#8CC21F" fill-opacity=".8"/>
        <circle cx="153" cy="3145" r="3" fill="#E3017F" fill-opacity=".603"/>
        <circle cx="1096" cy="2479" r="3" fill="#E3017F" fill-opacity=".603"/>
        <circle cx="1309" cy="2663" r="3" fill="#E3017F" fill-opacity=".603"/>
        <circle cx="916.5" cy="2675.5" r="3.5" fill="#8CC21F" fill-opacity=".504"/>
        <circle cx="182.5" cy="2455.5" r="3.5" fill="#8CC21F" fill-opacity=".8"/>
        <circle cx="526.5" cy="2656.5" r="3.5" fill="#EB7072" fill-opacity=".304"/>
        <circle cx="888.5" cy="1663.5" r="3.5" fill="#EB7072" fill-opacity=".304"/>
        <circle cx="1152.5" cy="2930.5" r="4.5" fill="#8CC21F" fill-opacity=".61"/>
        <circle cx="534.5" cy="2380.5" r="4.5" fill="#8CC21F" fill-opacity=".61"/>
        <circle cx="731.5" cy="2757.5" r="4.5" fill="#E3017F"/>
        <circle cx="1243" cy="2130" r="4" fill="#EB7072"/>
        <circle cx="216" cy="2058" r="4" fill="#E3017F"/>
        <circle cx="30" cy="2636" r="4" fill="#E3017F"/>
        <circle cx="429" cy="1761" r="4" fill="#EB7072"/>
        <circle cx="1164" cy="1955" r="3" fill="#8CC21F"/>
        <circle cx="1162.5" cy="1511.5" r="4.5" fill="#8CC21F"/>
        <circle cx="73.5" cy="1733.5" r="4.5" fill="#8CC21F"/>
        <circle cx="1007.5" cy="1398.5" r="4.5" fill="#E7AA2B"/>
        <circle cx="1285.5" cy="2925.5" r="4.5" fill="#EB7072" fill-opacity=".3"/>
        <circle cx="1371" cy="1824" r="4" fill="#E3017F"/>
    </g>
</svg>
